<svg width="580" height="400" xmlns="http://www.w3.org/2000/svg">
 <!-- Created with Method Draw - http://github.com/duopixel/Method-Draw/ -->

  <g>
  <title>Layer 1</title>
  <!-- Created with Method Draw - http://github.com/duopixel/Method-Draw/ -->
  <g stroke="null" id="svg_53">
   <g transform="matrix(0.7175223243768423,0,0,0.7175223243768423,-3542.9215271123685,-2390.484044761164) " stroke="null" id="svg_29">
    <g stroke="null" id="svg_45" transform="matrix(1.207223667877337,0,0,1.207223667877337,-1441.3658936874506,-912.2400972895405) ">
     <g stroke="null" id="svg_48">
      <path stroke="null" id="svg_50" d="m5670.778027,3601.053545c0,0 -28.378,-5.672 -52.737,6.117c-9.961,-22.64 -31.137,-37.482 -31.137,-37.482s-21.429,14.305 -31.314,37.395c-24.319,-11.676 -52.558,-6.029 -52.558,-6.029s-7.682,43.532 17.07,68.285c19.21,19.209 49.726,18.885 62.431,17.776c2.665,2.146 4.371,3.284 4.371,3.284s1.647,-1.156 4.225,-3.297c12.617,1.118 43.294,1.52 62.579,-17.764c24.752,-24.753 17.07,-68.285 17.07,-68.285z" fill="#91DC5A"/>
      <path stroke="null" id="svg_49" d="m5586.904027,3569.688545c0,0 -21.429,14.305 -31.314,37.395c-24.319,-11.676 -52.558,-6.029 -52.558,-6.029s-7.682,43.532 17.07,68.285c19.21,19.209 49.726,18.885 62.431,17.776c2.665,2.146 4.371,3.284 4.371,3.284l0,-120.711z" fill="#64C37D"/>
     </g>
     <path stroke="null" id="svg_47" d="m5716.905027,3750.399545c0,-20.574 -15.535,-37.512 -35.512,-39.743c3.498,-5.942 5.512,-12.862 5.512,-20.257c0,-22.092 -17.909,-40 -40,-40c-9.798,0 -18.769,3.528 -25.723,9.376c-7.001,-11.61 -19.731,-19.376 -34.277,-19.376c-14.546,0 -27.276,7.766 -34.277,19.376c-6.954,-5.848 -15.925,-9.376 -25.723,-9.376c-22.091,0 -40,17.908 -40,40c0,7.394 2.015,14.315 5.512,20.257c-19.977,2.232 -35.512,19.169 -35.512,39.743s15.535,37.512 35.512,39.743c-3.498,5.942 -5.512,12.862 -5.512,20.257c0,22.092 17.909,40 40,40c7.394,0 14.314,-2.015 20.257,-5.513c2.232,19.978 19.17,35.513 39.743,35.513s37.511,-15.534 39.743,-35.513c5.942,3.498 12.862,5.513 20.257,5.513c22.091,0 40,-17.908 40,-40c0,-7.395 -2.015,-14.315 -5.512,-20.257c19.979,-2.231 35.512,-19.169 35.512,-39.743z" fill="#FF5023"/>
     <path stroke="null" id="svg_46" d="m5586.905027,3640.399545c-14.546,0 -27.276,7.766 -34.277,19.376c-6.954,-5.848 -15.925,-9.376 -25.723,-9.376c-22.091,0 -40,17.908 -40,40c0,7.394 2.015,14.315 5.512,20.257c-19.977,2.232 -35.512,19.169 -35.512,39.743s15.535,37.512 35.512,39.743c-3.498,5.942 -5.512,12.862 -5.512,20.257c0,22.092 17.909,40 40,40c7.394,0 14.314,-2.015 20.257,-5.513c2.232,19.978 19.17,35.513 39.743,35.513c0,-81 0,-167 0,-240z" fill="#BD3C1A"/>
    </g>
    <g stroke="null" id="svg_44" transform="matrix(1.207223667877337,0,0,1.207223667877337,-1441.3658936874506,-912.2400972895405) "/>
    <g stroke="null" id="svg_43" transform="matrix(1.207223667877337,0,0,1.207223667877337,-1441.3658936874506,-912.2400972895405) "/>
    <g stroke="null" id="svg_42" transform="matrix(1.207223667877337,0,0,1.207223667877337,-1441.3658936874506,-912.2400972895405) "/>
    <g stroke="null" id="svg_41" transform="matrix(1.207223667877337,0,0,1.207223667877337,-1441.3658936874506,-912.2400972895405) "/>
    <g stroke="null" id="svg_40" transform="matrix(1.207223667877337,0,0,1.207223667877337,-1441.3658936874506,-912.2400972895405) "/>
    <g stroke="null" id="svg_39" transform="matrix(1.207223667877337,0,0,1.207223667877337,-1441.3658936874506,-912.2400972895405) "/>
    <g stroke="null" id="svg_38" transform="matrix(1.207223667877337,0,0,1.207223667877337,-1441.3658936874506,-912.2400972895405) "/>
    <g stroke="null" id="svg_37" transform="matrix(1.207223667877337,0,0,1.207223667877337,-1441.3658936874506,-912.2400972895405) "/>
    <g stroke="null" id="svg_36" transform="matrix(1.207223667877337,0,0,1.207223667877337,-1441.3658936874506,-912.2400972895405) "/>
    <g stroke="null" id="svg_35" transform="matrix(1.207223667877337,0,0,1.207223667877337,-1441.3658936874506,-912.2400972895405) "/>
    <g stroke="null" id="svg_34" transform="matrix(1.207223667877337,0,0,1.207223667877337,-1441.3658936874506,-912.2400972895405) "/>
    <g stroke="null" id="svg_33" transform="matrix(1.207223667877337,0,0,1.207223667877337,-1441.3658936874506,-912.2400972895405) "/>
    <g stroke="null" id="svg_32" transform="matrix(1.207223667877337,0,0,1.207223667877337,-1441.3658936874506,-912.2400972895405) "/>
    <g stroke="null" id="svg_31" transform="matrix(1.207223667877337,0,0,1.207223667877337,-1441.3658936874506,-912.2400972895405) "/>
    <g stroke="null" id="svg_30" transform="matrix(1.207223667877337,0,0,1.207223667877337,-1441.3658936874506,-912.2400972895405) "/>
   </g>
   <rect transform="matrix(0.7175223243768423,0,0,0.7175223243768423,-3542.9215271123685,-2390.484044761164) " stroke="#000" fill="#1e63a8" stroke-width="0" stroke-opacity="null" x="5285.778229" y="3639.233826" width="175.000005" height="134" id="svg_28" opacity="0.64" rx="49"/>
   <text stroke="#000" fill="#ffffff" stroke-width="0" x="1583.027385" y="1151.589608" id="svg_27" font-size="24" font-family="Helvetica, Arial, sans-serif" text-anchor="start" xml:space="preserve" transform="matrix(2.824404366397986,0,0,2.824404366397986,-4203.4290472859975,-2958.189994990143) ">2.0</text>
  </g>
 </g>
</svg>