<?xml version="1.0" encoding="iso-8859-1"?>
<!-- Generator: Adobe Illustrator 19.0.0, SVG Export Plug-In . SVG Version: 6.00 Build 0)  -->
<svg version="1.1" id="Layer_1" xmlns="http://www.w3.org/2000/svg" xmlns:xlink="http://www.w3.org/1999/xlink" x="0px" y="0px"
	 viewBox="0 0 310.711 310.711" style="enable-background:new 0 0 310.711 310.711;" xml:space="preserve">
<g id="XMLID_1607_">
	<g id="XMLID_1608_">
		<path id="XMLID_1609_" style="fill:#91DC5A;" d="M239.228,31.365c0,0-28.378-5.672-52.737,6.117
			C176.53,14.842,155.354,0,155.354,0s-21.429,14.305-31.314,37.395c-24.319-11.676-52.558-6.029-52.558-6.029
			s-7.682,43.532,17.07,68.285c19.21,19.209,49.726,18.885,62.431,17.776c2.665,2.146,4.371,3.284,4.371,3.284
			s1.647-1.156,4.225-3.297c12.617,1.118,43.294,1.52,62.579-17.764C246.91,74.897,239.228,31.365,239.228,31.365z"/>
		<path id="XMLID_1610_" style="fill:#64C37D;" d="M155.354,0c0,0-21.429,14.305-31.314,37.395
			c-24.319-11.676-52.558-6.029-52.558-6.029s-7.682,43.532,17.07,68.285c19.21,19.209,49.726,18.885,62.431,17.776
			c2.665,2.146,4.371,3.284,4.371,3.284V0z"/>
	</g>
	<path id="XMLID_1611_" style="fill:#FF5023;" d="M285.355,180.711c0-20.574-15.535-37.512-35.512-39.743
		c3.498-5.942,5.512-12.862,5.512-20.257c0-22.092-17.909-40-40-40c-9.798,0-18.769,3.528-25.723,9.376
		c-7.001-11.61-19.731-19.376-34.277-19.376c-14.546,0-27.276,7.766-34.277,19.376c-6.954-5.848-15.925-9.376-25.723-9.376
		c-22.091,0-40,17.908-40,40c0,7.394,2.015,14.315,5.512,20.257c-19.977,2.232-35.512,19.169-35.512,39.743
		s15.535,37.512,35.512,39.743c-3.498,5.942-5.512,12.862-5.512,20.257c0,22.092,17.909,40,40,40c7.394,0,14.314-2.015,20.257-5.513
		c2.232,19.978,19.17,35.513,39.743,35.513s37.511-15.534,39.743-35.513c5.942,3.498,12.862,5.513,20.257,5.513
		c22.091,0,40-17.908,40-40c0-7.395-2.015-14.315-5.512-20.257C269.822,218.223,285.355,201.285,285.355,180.711z"/>
	<path id="XMLID_1612_" style="fill:#BD3C1A;" d="M155.355,70.711c-14.546,0-27.276,7.766-34.277,19.376
		c-6.954-5.848-15.925-9.376-25.723-9.376c-22.091,0-40,17.908-40,40c0,7.394,2.015,14.315,5.512,20.257
		c-19.977,2.232-35.512,19.169-35.512,39.743s15.535,37.512,35.512,39.743c-3.498,5.942-5.512,12.862-5.512,20.257
		c0,22.092,17.909,40,40,40c7.394,0,14.314-2.015,20.257-5.513c2.232,19.978,19.17,35.513,39.743,35.513
		C155.355,229.711,155.355,143.711,155.355,70.711z"/>
</g>
<g>
</g>
<g>
</g>
<g>
</g>
<g>
</g>
<g>
</g>
<g>
</g>
<g>
</g>
<g>
</g>
<g>
</g>
<g>
</g>
<g>
</g>
<g>
</g>
<g>
</g>
<g>
</g>
<g>
</g>
</svg>
