<svg width="580" height="400" xmlns="http://www.w3.org/2000/svg">
 <!-- Created with Method Draw - http://github.com/duopixel/Method-Draw/ -->

 <g>
  <title>background</title>
  <rect x="-1" y="-1" width="582" height="402" id="canvas_background" fill="none"/>
 </g>
 <g>
  <title>Layer 1</title>
  <!-- Created with Method Draw - http://github.com/duopixel/Method-Draw/ -->
  <g id="svg_53" stroke="null">
   <g transform="matrix(0.8461626654933428,0,0,0.7870252422305827,-4210.862602144244,-2676.885629684347) " id="svg_29" stroke="null">
    <g id="svg_45" transform="matrix(1.207223667877337,0,0,1.207223667877337,-1441.3658936874506,-912.2400972895405) " stroke="null">
     <g id="svg_48" stroke="null">
      <path id="svg_50" d="m5685.21875,3646.75105c0,0 -28.378,-5.672 -52.737,6.117c-9.961,-22.64 -31.137,-37.482 -31.137,-37.482s-21.429,14.305 -31.314,37.395c-24.319,-11.676 -52.558,-6.029 -52.558,-6.029s-7.682,43.532 17.07,68.285c19.21,19.209 49.726,18.885 62.431,17.776c2.665,2.146 4.371,3.284 4.371,3.284s1.647,-1.156 4.225,-3.297c12.617,1.118 43.294,1.52 62.579,-17.764c24.752,-24.75301 17.07,-68.285 17.07,-68.285z" fill="#91DC5A" stroke="null"/>
      <path id="svg_49" d="m5601.34475,3615.38604c0,0 -21.429,14.305 -31.314,37.395c-24.319,-11.67599 -52.558,-6.029 -52.558,-6.029s-7.682,43.53201 17.07,68.285c19.21,19.209 49.726,18.88501 62.431,17.776c2.665,2.146 4.371,3.284 4.371,3.284l0,-120.711z" fill="#64C37D" stroke="null"/>
     </g>
     <path id="svg_47" d="m5731.34575,3796.09705c0,-20.574 -15.535,-37.512 -35.512,-39.743c3.498,-5.942 5.512,-12.862 5.512,-20.257c0,-22.092 -17.909,-40 -40,-40c-9.798,0 -18.769,3.528 -25.723,9.376c-7.001,-11.61 -19.731,-19.376 -34.277,-19.376c-14.546,0 -27.276,7.766 -34.277,19.376c-6.954,-5.848 -15.925,-9.376 -25.723,-9.376c-22.091,0 -40,17.908 -40,40c0,7.39399 2.015,14.315 5.512,20.257c-19.977,2.232 -35.512,19.169 -35.512,39.743s15.535,37.512 35.512,39.743c-3.498,5.942 -5.512,12.862 -5.512,20.257c0,22.092 17.909,40 40,40c7.394,0 14.314,-2.015 20.257,-5.513c2.232,19.978 19.17,35.513 39.743,35.513s37.511,-15.534 39.743,-35.513c5.942,3.498 12.862,5.513 20.257,5.513c22.091,0 40,-17.908 40,-40c0,-7.395 -2.015,-14.315 -5.512,-20.257c19.979,-2.23101 35.512,-19.169 35.512,-39.743z" fill="#FF5023" stroke="null"/>
     <path id="svg_46" d="m5601.34575,3686.09705c-14.546,0 -27.276,7.766 -34.277,19.376c-6.954,-5.848 -15.925,-9.376 -25.723,-9.376c-22.091,0 -40,17.908 -40,40c0,7.39399 2.015,14.315 5.512,20.257c-19.977,2.232 -35.512,19.169 -35.512,39.743s15.535,37.512 35.512,39.743c-3.498,5.942 -5.512,12.862 -5.512,20.257c0,22.092 17.909,40 40,40c7.394,0 14.314,-2.015 20.257,-5.513c2.232,19.978 19.17,35.513 39.743,35.513c0,-81 0,-167 0,-240z" fill="#BD3C1A" stroke="null"/>
    </g>
    <g id="svg_44" transform="matrix(1.207223667877337,0,0,1.207223667877337,-1441.3658936874506,-912.2400972895405) " stroke="null"/>
    <g id="svg_43" transform="matrix(1.207223667877337,0,0,1.207223667877337,-1441.3658936874506,-912.2400972895405) " stroke="null"/>
    <g id="svg_42" transform="matrix(1.207223667877337,0,0,1.207223667877337,-1441.3658936874506,-912.2400972895405) " stroke="null"/>
    <g id="svg_41" transform="matrix(1.207223667877337,0,0,1.207223667877337,-1441.3658936874506,-912.2400972895405) " stroke="null"/>
    <g id="svg_40" transform="matrix(1.207223667877337,0,0,1.207223667877337,-1441.3658936874506,-912.2400972895405) " stroke="null"/>
    <g id="svg_39" transform="matrix(1.207223667877337,0,0,1.207223667877337,-1441.3658936874506,-912.2400972895405) " stroke="null"/>
    <g id="svg_38" transform="matrix(1.207223667877337,0,0,1.207223667877337,-1441.3658936874506,-912.2400972895405) " stroke="null"/>
    <g id="svg_37" transform="matrix(1.207223667877337,0,0,1.207223667877337,-1441.3658936874506,-912.2400972895405) " stroke="null"/>
    <g id="svg_36" transform="matrix(1.207223667877337,0,0,1.207223667877337,-1441.3658936874506,-912.2400972895405) " stroke="null"/>
    <g id="svg_35" transform="matrix(1.207223667877337,0,0,1.207223667877337,-1441.3658936874506,-912.2400972895405) " stroke="null"/>
    <g id="svg_34" transform="matrix(1.207223667877337,0,0,1.207223667877337,-1441.3658936874506,-912.2400972895405) " stroke="null"/>
    <g id="svg_33" transform="matrix(1.207223667877337,0,0,1.207223667877337,-1441.3658936874506,-912.2400972895405) " stroke="null"/>
    <g id="svg_32" transform="matrix(1.207223667877337,0,0,1.207223667877337,-1441.3658936874506,-912.2400972895405) " stroke="null"/>
    <g id="svg_31" transform="matrix(1.207223667877337,0,0,1.207223667877337,-1441.3658936874506,-912.2400972895405) " stroke="null"/>
    <g id="svg_30" transform="matrix(1.207223667877337,0,0,1.207223667877337,-1441.3658936874506,-912.2400972895405) " stroke="null"/>
   </g>
  </g>
  <rect stroke="null" fill="#535F75" stroke-width="NaN" stroke-opacity="null" x="274.24528" y="235.73148" width="131.77357" height="97.17536" id="svg_3" rx="36" opacity="0.78"/>
  <text fill="#ffffff" stroke-width="0" stroke-opacity="null" x="328.85213" y="290.94251" id="svg_5" font-size="35" font-family="Helvetica, Arial, sans-serif" text-anchor="start" xml:space="preserve" transform="matrix(2.11124021148507,0,0,2.1155655323916402,-391.19815937329946,-303.4545985657015) " stroke="null">v2</text>
 </g>
</svg>